<svg xmlns="http://www.w3.org/2000/svg" viewBox="227 548 815 134" preserveAspectRatio="xMidYMid meet" role="img" aria-label="FreeTheAI logo">
    <g fill="#ffffff" fill-rule="evenodd">
    <path d="M 386.0 592.0 L 376.0 592.0 L 375.0 593.0 L 374.0 593.0 L 373.0 594.0 L 370.0 595.0 L 367.0 598.0 L 366.0 598.0 L 365.0 599.0 L 365.0 600.0 L 361.0 604.0 L 360.0 607.0 L 356.0 612.0 L 355.0 611.0 L 355.0 603.0 L 356.0 602.0 L 356.0 597.0 L 355.0 596.0 L 355.0 592.0 L 351.0 592.0 L 350.0 593.0 L 347.0 593.0 L 346.0 594.0 L 343.0 594.0 L 342.0 595.0 L 339.0 595.0 L 338.0 596.0 L 335.0 596.0 L 334.0 597.0 L 331.0 597.0 L 330.0 598.0 L 327.0 598.0 L 327.0 601.0 L 331.0 601.0 L 332.0 602.0 L 333.0 602.0 L 337.0 606.0 L 337.0 608.0 L 338.0 609.0 L 338.0 669.0 L 337.0 670.0 L 337.0 672.0 L 333.0 676.0 L 331.0 676.0 L 330.0 677.0 L 326.0 677.0 L 326.0 680.0 L 369.0 680.0 L 369.0 677.0 L 364.0 677.0 L 363.0 676.0 L 361.0 676.0 L 357.0 672.0 L 357.0 671.0 L 356.0 670.0 L 356.0 653.0 L 355.0 652.0 L 355.0 643.0 L 356.0 642.0 L 356.0 624.0 L 355.0 623.0 L 356.0 622.0 L 356.0 620.0 L 357.0 619.0 L 357.0 618.0 L 358.0 617.0 L 359.0 614.0 L 361.0 612.0 L 361.0 611.0 L 366.0 607.0 L 368.0 607.0 L 369.0 606.0 L 374.0 606.0 L 377.0 608.0 L 380.0 608.0 L 381.0 609.0 L 383.0 609.0 L 384.0 608.0 L 386.0 608.0 L 388.0 606.0 L 389.0 606.0 L 389.0 605.0 L 391.0 603.0 L 391.0 598.0 L 390.0 597.0 L 390.0 596.0 Z
M 829.0 591.0 L 828.0 592.0 L 823.0 592.0 L 822.0 593.0 L 820.0 593.0 L 819.0 594.0 L 817.0 594.0 L 816.0 595.0 L 814.0 595.0 L 813.0 596.0 L 812.0 596.0 L 810.0 598.0 L 809.0 598.0 L 807.0 600.0 L 806.0 600.0 L 800.0 606.0 L 800.0 607.0 L 797.0 610.0 L 797.0 611.0 L 796.0 612.0 L 796.0 613.0 L 793.0 618.0 L 793.0 620.0 L 792.0 621.0 L 792.0 623.0 L 791.0 624.0 L 791.0 628.0 L 790.0 629.0 L 790.0 646.0 L 791.0 647.0 L 791.0 650.0 L 792.0 651.0 L 792.0 653.0 L 793.0 654.0 L 793.0 656.0 L 795.0 659.0 L 795.0 661.0 L 797.0 663.0 L 797.0 664.0 L 799.0 666.0 L 799.0 667.0 L 806.0 674.0 L 807.0 674.0 L 809.0 676.0 L 810.0 676.0 L 815.0 679.0 L 817.0 679.0 L 818.0 680.0 L 820.0 680.0 L 821.0 681.0 L 825.0 681.0 L 826.0 682.0 L 838.0 682.0 L 839.0 681.0 L 844.0 681.0 L 845.0 680.0 L 847.0 680.0 L 848.0 679.0 L 849.0 679.0 L 850.0 678.0 L 851.0 678.0 L 852.0 677.0 L 853.0 677.0 L 854.0 676.0 L 857.0 675.0 L 866.0 666.0 L 866.0 665.0 L 868.0 663.0 L 868.0 662.0 L 870.0 659.0 L 870.0 656.0 L 868.0 656.0 L 867.0 657.0 L 867.0 658.0 L 861.0 664.0 L 860.0 664.0 L 858.0 666.0 L 857.0 666.0 L 854.0 668.0 L 852.0 668.0 L 851.0 669.0 L 847.0 669.0 L 846.0 670.0 L 833.0 670.0 L 832.0 669.0 L 829.0 669.0 L 828.0 668.0 L 827.0 668.0 L 826.0 667.0 L 823.0 666.0 L 821.0 664.0 L 820.0 664.0 L 816.0 660.0 L 816.0 659.0 L 813.0 656.0 L 813.0 655.0 L 810.0 650.0 L 810.0 648.0 L 809.0 647.0 L 809.0 644.0 L 808.0 643.0 L 808.0 638.0 L 807.0 637.0 L 807.0 631.0 L 808.0 630.0 L 871.0 630.0 L 871.0 620.0 L 870.0 619.0 L 870.0 616.0 L 869.0 615.0 L 869.0 613.0 L 868.0 612.0 L 868.0 611.0 L 867.0 610.0 L 866.0 607.0 L 856.0 597.0 L 855.0 597.0 L 850.0 594.0 L 848.0 594.0 L 847.0 593.0 L 844.0 593.0 L 843.0 592.0 L 837.0 592.0 L 836.0 591.0 Z
M 808.0 618.0 L 809.0 617.0 L 809.0 614.0 L 810.0 613.0 L 810.0 612.0 L 811.0 611.0 L 811.0 610.0 L 812.0 609.0 L 813.0 606.0 L 821.0 598.0 L 822.0 598.0 L 823.0 597.0 L 825.0 597.0 L 826.0 596.0 L 829.0 596.0 L 830.0 595.0 L 834.0 595.0 L 835.0 596.0 L 838.0 596.0 L 839.0 597.0 L 841.0 597.0 L 843.0 599.0 L 844.0 599.0 L 848.0 603.0 L 848.0 604.0 L 850.0 606.0 L 850.0 607.0 L 851.0 608.0 L 851.0 610.0 L 852.0 611.0 L 852.0 613.0 L 853.0 614.0 L 853.0 624.0 L 852.0 625.0 L 809.0 625.0 L 808.0 624.0 Z
M 528.0 591.0 L 527.0 592.0 L 521.0 592.0 L 520.0 593.0 L 517.0 593.0 L 514.0 595.0 L 512.0 595.0 L 511.0 596.0 L 510.0 596.0 L 508.0 598.0 L 507.0 598.0 L 505.0 600.0 L 504.0 600.0 L 498.0 606.0 L 498.0 607.0 L 495.0 610.0 L 495.0 611.0 L 494.0 612.0 L 494.0 613.0 L 491.0 618.0 L 491.0 620.0 L 490.0 621.0 L 490.0 623.0 L 489.0 624.0 L 489.0 628.0 L 488.0 629.0 L 488.0 646.0 L 489.0 647.0 L 489.0 650.0 L 490.0 651.0 L 490.0 653.0 L 491.0 654.0 L 491.0 656.0 L 492.0 657.0 L 492.0 659.0 L 494.0 661.0 L 494.0 662.0 L 495.0 663.0 L 495.0 664.0 L 497.0 666.0 L 497.0 667.0 L 503.0 673.0 L 504.0 673.0 L 509.0 677.0 L 510.0 677.0 L 513.0 679.0 L 515.0 679.0 L 516.0 680.0 L 518.0 680.0 L 519.0 681.0 L 524.0 681.0 L 525.0 682.0 L 537.0 682.0 L 538.0 681.0 L 542.0 681.0 L 543.0 680.0 L 545.0 680.0 L 548.0 678.0 L 550.0 678.0 L 551.0 677.0 L 552.0 677.0 L 554.0 675.0 L 555.0 675.0 L 557.0 673.0 L 558.0 673.0 L 563.0 668.0 L 563.0 667.0 L 567.0 662.0 L 567.0 661.0 L 568.0 660.0 L 569.0 657.0 L 568.0 656.0 L 566.0 656.0 L 566.0 657.0 L 558.0 665.0 L 557.0 665.0 L 552.0 668.0 L 550.0 668.0 L 549.0 669.0 L 546.0 669.0 L 545.0 670.0 L 532.0 670.0 L 531.0 669.0 L 528.0 669.0 L 527.0 668.0 L 525.0 668.0 L 524.0 667.0 L 523.0 667.0 L 521.0 665.0 L 520.0 665.0 L 512.0 657.0 L 512.0 656.0 L 511.0 655.0 L 511.0 654.0 L 508.0 649.0 L 508.0 647.0 L 507.0 646.0 L 507.0 643.0 L 506.0 642.0 L 506.0 636.0 L 505.0 635.0 L 505.0 631.0 L 506.0 630.0 L 569.0 630.0 L 569.0 619.0 L 568.0 618.0 L 568.0 616.0 L 567.0 615.0 L 567.0 613.0 L 566.0 612.0 L 565.0 609.0 L 563.0 607.0 L 563.0 606.0 L 555.0 598.0 L 554.0 598.0 L 553.0 597.0 L 552.0 597.0 L 547.0 594.0 L 545.0 594.0 L 544.0 593.0 L 542.0 593.0 L 541.0 592.0 L 536.0 592.0 L 535.0 591.0 Z
M 506.0 619.0 L 507.0 618.0 L 507.0 615.0 L 508.0 614.0 L 508.0 612.0 L 509.0 611.0 L 509.0 610.0 L 510.0 609.0 L 511.0 606.0 L 519.0 598.0 L 520.0 598.0 L 521.0 597.0 L 523.0 597.0 L 524.0 596.0 L 527.0 596.0 L 528.0 595.0 L 532.0 595.0 L 533.0 596.0 L 536.0 596.0 L 537.0 597.0 L 539.0 597.0 L 541.0 599.0 L 542.0 599.0 L 546.0 603.0 L 546.0 604.0 L 549.0 609.0 L 549.0 611.0 L 550.0 612.0 L 550.0 614.0 L 551.0 615.0 L 551.0 624.0 L 550.0 625.0 L 507.0 625.0 L 506.0 624.0 Z
M 434.0 591.0 L 433.0 592.0 L 428.0 592.0 L 427.0 593.0 L 425.0 593.0 L 424.0 594.0 L 422.0 594.0 L 421.0 595.0 L 419.0 595.0 L 418.0 596.0 L 415.0 597.0 L 413.0 599.0 L 412.0 599.0 L 404.0 607.0 L 404.0 608.0 L 401.0 611.0 L 401.0 612.0 L 399.0 615.0 L 399.0 617.0 L 397.0 620.0 L 397.0 622.0 L 396.0 623.0 L 396.0 627.0 L 395.0 628.0 L 395.0 647.0 L 396.0 648.0 L 396.0 652.0 L 397.0 653.0 L 397.0 655.0 L 398.0 656.0 L 398.0 657.0 L 399.0 658.0 L 399.0 659.0 L 400.0 660.0 L 401.0 663.0 L 403.0 665.0 L 403.0 666.0 L 412.0 675.0 L 413.0 675.0 L 414.0 676.0 L 415.0 676.0 L 420.0 679.0 L 422.0 679.0 L 423.0 680.0 L 425.0 680.0 L 426.0 681.0 L 431.0 681.0 L 432.0 682.0 L 443.0 682.0 L 444.0 681.0 L 449.0 681.0 L 450.0 680.0 L 452.0 680.0 L 453.0 679.0 L 454.0 679.0 L 455.0 678.0 L 457.0 678.0 L 459.0 676.0 L 462.0 675.0 L 471.0 666.0 L 471.0 665.0 L 475.0 660.0 L 476.0 657.0 L 475.0 656.0 L 473.0 656.0 L 472.0 657.0 L 472.0 658.0 L 466.0 664.0 L 465.0 664.0 L 463.0 666.0 L 462.0 666.0 L 459.0 668.0 L 457.0 668.0 L 456.0 669.0 L 453.0 669.0 L 452.0 670.0 L 439.0 670.0 L 438.0 669.0 L 435.0 669.0 L 434.0 668.0 L 432.0 668.0 L 431.0 667.0 L 428.0 666.0 L 425.0 663.0 L 424.0 663.0 L 420.0 659.0 L 420.0 658.0 L 418.0 656.0 L 418.0 655.0 L 415.0 650.0 L 415.0 648.0 L 414.0 647.0 L 414.0 645.0 L 413.0 644.0 L 413.0 640.0 L 412.0 639.0 L 412.0 631.0 L 413.0 630.0 L 476.0 630.0 L 476.0 621.0 L 475.0 620.0 L 475.0 616.0 L 474.0 615.0 L 474.0 613.0 L 473.0 612.0 L 472.0 609.0 L 470.0 607.0 L 470.0 606.0 L 466.0 602.0 L 466.0 601.0 L 465.0 600.0 L 464.0 600.0 L 459.0 596.0 L 458.0 596.0 L 457.0 595.0 L 455.0 595.0 L 452.0 593.0 L 449.0 593.0 L 448.0 592.0 L 442.0 592.0 L 441.0 591.0 Z
M 412.0 622.0 L 413.0 621.0 L 413.0 617.0 L 414.0 616.0 L 414.0 614.0 L 415.0 613.0 L 415.0 611.0 L 416.0 610.0 L 416.0 609.0 L 418.0 607.0 L 418.0 606.0 L 420.0 604.0 L 420.0 603.0 L 423.0 600.0 L 424.0 600.0 L 426.0 598.0 L 427.0 598.0 L 430.0 596.0 L 434.0 596.0 L 435.0 595.0 L 439.0 595.0 L 440.0 596.0 L 443.0 596.0 L 444.0 597.0 L 447.0 598.0 L 454.0 605.0 L 454.0 606.0 L 456.0 609.0 L 456.0 611.0 L 457.0 612.0 L 457.0 615.0 L 458.0 616.0 L 458.0 624.0 L 457.0 625.0 L 413.0 625.0 L 412.0 624.0 Z
M 1000.0 552.0 L 1000.0 555.0 L 1004.0 555.0 L 1005.0 556.0 L 1008.0 557.0 L 1010.0 559.0 L 1010.0 560.0 L 1011.0 561.0 L 1011.0 563.0 L 1012.0 564.0 L 1012.0 668.0 L 1011.0 669.0 L 1011.0 671.0 L 1010.0 672.0 L 1010.0 673.0 L 1008.0 675.0 L 1007.0 675.0 L 1004.0 677.0 L 1001.0 677.0 L 1000.0 678.0 L 1000.0 680.0 L 1041.0 680.0 L 1042.0 679.0 L 1042.0 678.0 L 1041.0 677.0 L 1037.0 677.0 L 1036.0 676.0 L 1033.0 675.0 L 1031.0 673.0 L 1031.0 672.0 L 1030.0 671.0 L 1030.0 668.0 L 1029.0 667.0 L 1029.0 566.0 L 1030.0 565.0 L 1030.0 561.0 L 1031.0 560.0 L 1031.0 559.0 L 1033.0 557.0 L 1034.0 557.0 L 1037.0 555.0 L 1041.0 555.0 L 1042.0 554.0 L 1042.0 553.0 L 1041.0 552.0 Z
M 575.0 552.0 L 575.0 561.0 L 574.0 562.0 L 574.0 565.0 L 577.0 564.0 L 579.0 562.0 L 580.0 562.0 L 585.0 559.0 L 587.0 559.0 L 588.0 558.0 L 592.0 558.0 L 593.0 557.0 L 619.0 557.0 L 620.0 558.0 L 620.0 669.0 L 619.0 670.0 L 618.0 673.0 L 616.0 675.0 L 615.0 675.0 L 614.0 676.0 L 612.0 676.0 L 611.0 677.0 L 607.0 677.0 L 607.0 680.0 L 651.0 680.0 L 651.0 677.0 L 647.0 677.0 L 646.0 676.0 L 644.0 676.0 L 639.0 671.0 L 639.0 669.0 L 638.0 668.0 L 638.0 558.0 L 639.0 557.0 L 662.0 557.0 L 663.0 558.0 L 665.0 558.0 L 666.0 559.0 L 667.0 559.0 L 668.0 560.0 L 671.0 561.0 L 676.0 566.0 L 676.0 567.0 L 678.0 569.0 L 678.0 571.0 L 680.0 574.0 L 680.0 577.0 L 681.0 578.0 L 681.0 581.0 L 684.0 581.0 L 684.0 570.0 L 683.0 569.0 L 683.0 553.0 L 682.0 552.0 Z
M 324.0 552.0 L 227.0 552.0 L 227.0 555.0 L 232.0 555.0 L 233.0 556.0 L 236.0 557.0 L 238.0 559.0 L 238.0 560.0 L 239.0 561.0 L 239.0 563.0 L 240.0 564.0 L 240.0 668.0 L 239.0 669.0 L 239.0 671.0 L 238.0 672.0 L 238.0 673.0 L 236.0 675.0 L 235.0 675.0 L 232.0 677.0 L 227.0 677.0 L 227.0 680.0 L 271.0 680.0 L 271.0 678.0 L 270.0 677.0 L 266.0 677.0 L 265.0 676.0 L 263.0 676.0 L 259.0 672.0 L 259.0 671.0 L 258.0 670.0 L 258.0 619.0 L 259.0 618.0 L 290.0 618.0 L 291.0 619.0 L 295.0 619.0 L 296.0 620.0 L 299.0 621.0 L 305.0 627.0 L 305.0 628.0 L 306.0 629.0 L 306.0 632.0 L 307.0 633.0 L 307.0 636.0 L 310.0 636.0 L 310.0 596.0 L 307.0 596.0 L 307.0 599.0 L 306.0 600.0 L 306.0 602.0 L 305.0 603.0 L 305.0 604.0 L 299.0 610.0 L 298.0 610.0 L 295.0 612.0 L 292.0 612.0 L 291.0 613.0 L 259.0 613.0 L 258.0 612.0 L 258.0 558.0 L 259.0 557.0 L 301.0 557.0 L 302.0 558.0 L 305.0 558.0 L 306.0 559.0 L 308.0 559.0 L 309.0 560.0 L 312.0 561.0 L 318.0 567.0 L 318.0 568.0 L 321.0 573.0 L 321.0 576.0 L 322.0 577.0 L 322.0 579.0 L 323.0 580.0 L 325.0 580.0 L 325.0 568.0 L 324.0 567.0 Z
M 931.0 550.0 L 930.0 551.0 L 930.0 553.0 L 928.0 556.0 L 928.0 558.0 L 927.0 559.0 L 927.0 561.0 L 925.0 564.0 L 925.0 566.0 L 923.0 569.0 L 923.0 571.0 L 922.0 572.0 L 922.0 574.0 L 920.0 577.0 L 920.0 579.0 L 918.0 582.0 L 918.0 584.0 L 917.0 585.0 L 917.0 587.0 L 915.0 590.0 L 915.0 592.0 L 914.0 593.0 L 914.0 595.0 L 912.0 598.0 L 912.0 600.0 L 910.0 603.0 L 910.0 605.0 L 909.0 606.0 L 909.0 607.0 L 908.0 608.0 L 908.0 610.0 L 906.0 613.0 L 906.0 615.0 L 905.0 616.0 L 905.0 618.0 L 903.0 621.0 L 903.0 623.0 L 901.0 626.0 L 901.0 628.0 L 899.0 631.0 L 899.0 633.0 L 897.0 636.0 L 897.0 638.0 L 895.0 641.0 L 895.0 643.0 L 893.0 646.0 L 893.0 648.0 L 891.0 651.0 L 891.0 653.0 L 890.0 654.0 L 890.0 655.0 L 889.0 656.0 L 889.0 658.0 L 887.0 661.0 L 887.0 663.0 L 886.0 664.0 L 886.0 665.0 L 885.0 666.0 L 885.0 667.0 L 884.0 668.0 L 883.0 671.0 L 879.0 675.0 L 878.0 675.0 L 875.0 677.0 L 872.0 677.0 L 872.0 680.0 L 903.0 680.0 L 904.0 679.0 L 904.0 678.0 L 903.0 677.0 L 898.0 677.0 L 893.0 674.0 L 893.0 673.0 L 892.0 672.0 L 892.0 666.0 L 893.0 665.0 L 893.0 663.0 L 894.0 662.0 L 894.0 660.0 L 895.0 659.0 L 895.0 657.0 L 897.0 654.0 L 897.0 652.0 L 899.0 649.0 L 899.0 647.0 L 901.0 644.0 L 901.0 642.0 L 903.0 639.0 L 903.0 637.0 L 904.0 636.0 L 904.0 634.0 L 907.0 629.0 L 907.0 627.0 L 908.0 626.0 L 908.0 624.0 L 910.0 621.0 L 910.0 619.0 L 912.0 616.0 L 912.0 614.0 L 914.0 611.0 L 914.0 609.0 L 915.0 608.0 L 915.0 607.0 L 916.0 606.0 L 916.0 604.0 L 918.0 601.0 L 918.0 599.0 L 919.0 598.0 L 919.0 596.0 L 920.0 595.0 L 920.0 593.0 L 923.0 588.0 L 923.0 586.0 L 924.0 585.0 L 924.0 583.0 L 925.0 582.0 L 925.0 580.0 L 927.0 577.0 L 929.0 579.0 L 929.0 580.0 L 930.0 581.0 L 930.0 583.0 L 931.0 584.0 L 931.0 586.0 L 932.0 587.0 L 932.0 588.0 L 934.0 591.0 L 934.0 593.0 L 937.0 598.0 L 937.0 600.0 L 939.0 603.0 L 939.0 605.0 L 941.0 608.0 L 941.0 610.0 L 943.0 613.0 L 943.0 615.0 L 946.0 620.0 L 946.0 622.0 L 948.0 625.0 L 948.0 627.0 L 950.0 630.0 L 950.0 632.0 L 952.0 635.0 L 952.0 637.0 L 954.0 640.0 L 954.0 642.0 L 956.0 645.0 L 956.0 647.0 L 958.0 650.0 L 958.0 652.0 L 960.0 655.0 L 960.0 657.0 L 962.0 660.0 L 962.0 662.0 L 963.0 663.0 L 963.0 665.0 L 964.0 666.0 L 964.0 673.0 L 961.0 676.0 L 959.0 676.0 L 958.0 677.0 L 954.0 677.0 L 953.0 678.0 L 953.0 680.0 L 995.0 680.0 L 995.0 677.0 L 993.0 677.0 L 992.0 676.0 L 989.0 675.0 L 986.0 672.0 L 986.0 671.0 L 984.0 669.0 L 984.0 668.0 L 982.0 665.0 L 982.0 663.0 L 981.0 662.0 L 981.0 660.0 L 979.0 657.0 L 979.0 655.0 L 977.0 652.0 L 977.0 650.0 L 975.0 647.0 L 975.0 645.0 L 973.0 642.0 L 973.0 640.0 L 970.0 635.0 L 970.0 633.0 L 968.0 630.0 L 968.0 628.0 L 967.0 627.0 L 967.0 626.0 L 966.0 625.0 L 966.0 623.0 L 964.0 620.0 L 964.0 618.0 L 963.0 617.0 L 963.0 615.0 L 962.0 614.0 L 962.0 613.0 L 960.0 610.0 L 960.0 608.0 L 957.0 603.0 L 957.0 601.0 L 956.0 600.0 L 956.0 598.0 L 955.0 597.0 L 955.0 596.0 L 953.0 593.0 L 953.0 591.0 L 950.0 586.0 L 950.0 584.0 L 948.0 581.0 L 948.0 579.0 L 946.0 576.0 L 946.0 574.0 L 944.0 571.0 L 944.0 569.0 L 941.0 564.0 L 941.0 562.0 L 939.0 559.0 L 939.0 557.0 L 937.0 554.0 L 937.0 552.0 L 936.0 551.0 L 936.0 550.0 Z
M 690.0 554.0 L 689.0 555.0 L 689.0 557.0 L 692.0 557.0 L 693.0 558.0 L 696.0 559.0 L 698.0 561.0 L 698.0 562.0 L 699.0 563.0 L 699.0 567.0 L 700.0 568.0 L 700.0 668.0 L 699.0 669.0 L 699.0 671.0 L 698.0 672.0 L 698.0 673.0 L 696.0 675.0 L 695.0 675.0 L 692.0 677.0 L 688.0 677.0 L 688.0 680.0 L 729.0 680.0 L 729.0 677.0 L 725.0 677.0 L 724.0 676.0 L 722.0 676.0 L 718.0 672.0 L 718.0 670.0 L 717.0 669.0 L 717.0 613.0 L 725.0 605.0 L 726.0 605.0 L 731.0 602.0 L 734.0 602.0 L 735.0 601.0 L 744.0 601.0 L 745.0 602.0 L 747.0 602.0 L 748.0 603.0 L 749.0 603.0 L 755.0 609.0 L 755.0 610.0 L 756.0 611.0 L 756.0 613.0 L 757.0 614.0 L 757.0 620.0 L 758.0 621.0 L 758.0 667.0 L 757.0 668.0 L 757.0 671.0 L 756.0 672.0 L 756.0 673.0 L 754.0 675.0 L 753.0 675.0 L 750.0 677.0 L 747.0 677.0 L 746.0 678.0 L 746.0 680.0 L 786.0 680.0 L 787.0 679.0 L 787.0 678.0 L 786.0 677.0 L 782.0 677.0 L 781.0 676.0 L 778.0 675.0 L 777.0 674.0 L 777.0 673.0 L 775.0 671.0 L 775.0 616.0 L 774.0 615.0 L 774.0 610.0 L 773.0 609.0 L 773.0 607.0 L 772.0 606.0 L 772.0 605.0 L 771.0 604.0 L 770.0 601.0 L 765.0 596.0 L 764.0 596.0 L 759.0 593.0 L 757.0 593.0 L 756.0 592.0 L 753.0 592.0 L 752.0 591.0 L 744.0 591.0 L 743.0 592.0 L 739.0 592.0 L 738.0 593.0 L 736.0 593.0 L 735.0 594.0 L 733.0 594.0 L 732.0 595.0 L 731.0 595.0 L 729.0 597.0 L 728.0 597.0 L 726.0 599.0 L 725.0 599.0 L 718.0 606.0 L 717.0 605.0 L 717.0 548.0 L 715.0 548.0 L 714.0 549.0 L 711.0 549.0 L 710.0 550.0 L 707.0 550.0 L 706.0 551.0 L 702.0 551.0 L 701.0 552.0 L 698.0 552.0 L 697.0 553.0 L 694.0 553.0 L 693.0 554.0 Z"/>
  </g>
  <g fill="#f76c1d" fill-rule="evenodd">
    <path d="M 913.0 637.0 L 913.0 647.0 L 942.0 647.0 L 942.0 637.0 Z"/>
  </g>
</svg>
